<svg fill="#981B1C" height="200px" width="200px" version="1.1" id="Layer_1" xmlns="http://www.w3.org/2000/svg" xmlns:xlink="http://www.w3.org/1999/xlink" viewBox="0 0 507.52 507.52" xml:space="preserve" stroke="#981B1C" transform="rotate(0)matrix(1, 0, 0, 1, 0, 0)" stroke-width="0.0050752"><g id="SVGRepo_bgCarrier" stroke-width="0"></g><g id="SVGRepo_tracerCarrier" stroke-linecap="round" stroke-linejoin="round" stroke="#CCCCCC" stroke-width="2.03008"></g><g id="SVGRepo_iconCarrier"> <g> <g> <g> <polygon points="386.603,185.92 488.427,347.136 488.427,138.944 "></polygon> <polygon points="218.283,18.645 30.827,125.781 131.883,167.893 "></polygon> <polygon points="135.787,202.325 27.264,374.144 235.264,383.189 "></polygon> <polygon points="352.597,170.667 253.781,0 253.739,0 154.923,170.667 "></polygon> <polygon points="471.915,123.051 289.237,18.645 375.445,167.573 "></polygon> <polygon points="19.093,144 19.093,347.136 120.661,186.325 "></polygon> <polygon points="243.093,507.52 243.093,404.843 48.661,396.416 "></polygon> <polygon points="272.235,383.232 480.256,374.144 371.733,202.325 "></polygon> <polygon points="264.427,507.52 458.837,396.416 264.427,404.885 "></polygon> <polygon points="154.475,192 253.76,372.523 353.045,192 "></polygon> </g> </g> </g> </g></svg>